HIERARCHY
ROOT Hips
{
    OFFSET   0.000000   0.000000   0.000000
    CHANNELS 6 Xposition Yposition Zposition Zrotation Xrotation Yrotation
    JOINT Chest
    {
        OFFSET   0.000000   8.007230   0.000000
        CHANNELS 3 Zrotation Xrotation Yrotation
        JOINT Chest2
        {
            OFFSET   0.000000  22.077100   0.000000
            CHANNELS 3 Zrotation Xrotation Yrotation
            JOINT Neck
            {
                OFFSET   0.000000  23.254800  -0.000021
                CHANNELS 3 Zrotation Xrotation Yrotation
                JOINT Head
                {
                    OFFSET   0.000000  14.370000   1.956610
                    CHANNELS 3 Zrotation Xrotation Yrotation
                    End Site
                    {
                        OFFSET   0.000000  19.566000   0.000000
                    }
                }
            }
            JOINT LeftCollar
            {
                OFFSET   3.911900  19.017000  -0.467063
                CHANNELS 3 Zrotation Xrotation Yrotation
                JOINT LeftShoulder
                {
                    OFFSET  10.383700   0.000000   0.000000
                    CHANNELS 3 Zrotation Xrotation Yrotation
                    JOINT LeftElbow
                    {
                        OFFSET  26.662100   0.001529   0.000325
                        CHANNELS 3 Zrotation Xrotation Yrotation
                        JOINT LeftWrist
                        {
                            OFFSET  28.869000  -0.000011  -0.000096
                            CHANNELS 3 Zrotation Xrotation Yrotation
                            JOINT LeftFinger0
                            {
                                OFFSET   2.044650  -2.323460   3.252850
                                CHANNELS 3 Zrotation Xrotation Yrotation
                                JOINT LeftFinger01
                                {
                                    OFFSET   3.088130   0.000000   0.000000
                                    CHANNELS 3 Zrotation Xrotation Yrotation
                                    JOINT LeftFinger02
                                    {
                                        OFFSET   2.639460   0.000000   0.000000
                                        CHANNELS 3 Zrotation Xrotation Yrotation
                                        End Site
                                        {
                                            OFFSET   2.582190   0.000000   0.000000
                                        }
                                    }
                                }
                            }
                            JOINT LeftFinger1
                            {
                                OFFSET   8.364480   0.000000   3.252850
                                CHANNELS 3 Zrotation Xrotation Yrotation
                                JOINT LeftFinger11
                                {
                                    OFFSET   4.646930   0.000000   0.000000
                                    CHANNELS 3 Zrotation Xrotation Yrotation
                                    JOINT LeftFinger12
                                    {
                                        OFFSET   2.323460   0.000000   0.000000
                                        CHANNELS 3 Zrotation Xrotation Yrotation
                                        End Site
                                        {
                                            OFFSET   2.273050   0.000000   0.000000
                                        }
                                    }
                                }
                            }
                            JOINT LeftFinger2
                            {
                                OFFSET   8.364480   0.000016   1.078090
                                CHANNELS 3 Zrotation Xrotation Yrotation
                                JOINT LeftFinger21
                                {
                                    OFFSET   5.111620   0.000000   0.000000
                                    CHANNELS 3 Zrotation Xrotation Yrotation
                                    JOINT LeftFinger22
                                    {
                                        OFFSET   2.788160   0.000017   0.000000
                                        CHANNELS 3 Zrotation Xrotation Yrotation
                                        End Site
                                        {
                                            OFFSET   2.727660   0.000000   0.000000
                                        }
                                    }
                                }
                            }
                            JOINT LeftFinger3
                            {
                                OFFSET   7.899780   0.000015  -1.078090
                                CHANNELS 3 Zrotation Xrotation Yrotation
                                JOINT LeftFinger31
                                {
                                    OFFSET   4.646920   0.000000   0.000000
                                    CHANNELS 3 Zrotation Xrotation Yrotation
                                    JOINT LeftFinger32
                                    {
                                        OFFSET   2.323470   0.000000   0.000000
                                        CHANNELS 3 Zrotation Xrotation Yrotation
                                        End Site
                                        {
                                            OFFSET   2.273050   0.000000   0.000000
                                        }
                                    }
                                }
                            }
                            JOINT LeftFinger4
                            {
                                OFFSET   7.435090   0.000000  -3.252850
                                CHANNELS 3 Zrotation Xrotation Yrotation
                                JOINT LeftFinger41
                                {
                                    OFFSET   3.717550   0.000000   0.000000
                                    CHANNELS 3 Zrotation Xrotation Yrotation
                                    JOINT LeftFinger42
                                    {
                                        OFFSET   1.858760   0.000000   0.000000
                                        CHANNELS 3 Zrotation Xrotation Yrotation
                                        End Site
                                        {
                                            OFFSET   1.818440   0.000000   0.000000
                                        }
                                    }
                                }
                            }
                        }
                    }
                }
            }
            JOINT RightCollar
            {
                OFFSET  -3.911900  19.017000  -0.467062
                CHANNELS 3 Zrotation Xrotation Yrotation
                JOINT RightShoulder
                {
                    OFFSET -10.383700   0.000015   0.000000
                    CHANNELS 3 Zrotation Xrotation Yrotation
                    JOINT RightElbow
                    {
                        OFFSET -26.662100   0.001341   0.000385
                        CHANNELS 3 Zrotation Xrotation Yrotation
                        JOINT RightWrist
                        {
                            OFFSET -28.869000   0.000025  -0.000080
                            CHANNELS 3 Zrotation Xrotation Yrotation
                            JOINT RightFinger0
                            {
                                OFFSET  -2.044650  -2.323490   3.252850
                                CHANNELS 3 Zrotation Xrotation Yrotation
                                JOINT RightFinger01
                                {
                                    OFFSET  -3.088130   0.000000   0.000000
                                    CHANNELS 3 Zrotation Xrotation Yrotation
                                    JOINT RightFinger02
                                    {
                                        OFFSET  -2.639460   0.000000   0.000000
                                        CHANNELS 3 Zrotation Xrotation Yrotation
                                        End Site
                                        {
                                            OFFSET  -2.582190   0.000000   0.000000
                                        }
                                    }
                                }
                            }
                            JOINT RightFinger1
                            {
                                OFFSET  -8.364480   0.000000   3.252850
                                CHANNELS 3 Zrotation Xrotation Yrotation
                                JOINT RightFinger11
                                {
                                    OFFSET  -4.646930   0.000000   0.000000
                                    CHANNELS 3 Zrotation Xrotation Yrotation
                                    JOINT RightFinger12
                                    {
                                        OFFSET  -2.323470   0.000000   0.000000
                                        CHANNELS 3 Zrotation Xrotation Yrotation
                                        End Site
                                        {
                                            OFFSET  -2.273050   0.000000   0.000000
                                        }
                                    }
                                }
                            }
                            JOINT RightFinger2
                            {
                                OFFSET  -8.364480   0.000000   1.078090
                                CHANNELS 3 Zrotation Xrotation Yrotation
                                JOINT RightFinger21
                                {
                                    OFFSET  -5.111610   0.000000   0.000000
                                    CHANNELS 3 Zrotation Xrotation Yrotation
                                    JOINT RightFinger22
                                    {
                                        OFFSET  -2.788160   0.000000   0.000000
                                        CHANNELS 3 Zrotation Xrotation Yrotation
                                        End Site
                                        {
                                            OFFSET  -2.727660   0.000000   0.000000
                                        }
                                    }
                                }
                            }
                            JOINT RightFinger3
                            {
                                OFFSET  -7.899780   0.000000  -1.078090
                                CHANNELS 3 Zrotation Xrotation Yrotation
                                JOINT RightFinger31
                                {
                                    OFFSET  -4.646920   0.000000   0.000000
                                    CHANNELS 3 Zrotation Xrotation Yrotation
                                    JOINT RightFinger32
                                    {
                                        OFFSET  -2.323470   0.000000   0.000000
                                        CHANNELS 3 Zrotation Xrotation Yrotation
                                        End Site
                                        {
                                            OFFSET  -2.273050   0.000000   0.000000
                                        }
                                    }
                                }
                            }
                            JOINT RightFinger4
                            {
                                OFFSET  -7.435090   0.000000  -3.252850
                                CHANNELS 3 Zrotation Xrotation Yrotation
                                JOINT RightFinger41
                                {
                                    OFFSET  -3.717550   0.000000   0.000000
                                    CHANNELS 3 Zrotation Xrotation Yrotation
                                    JOINT RightFinger42
                                    {
                                        OFFSET  -1.858770   0.000000   0.000000
                                        CHANNELS 3 Zrotation Xrotation Yrotation
                                        End Site
                                        {
                                            OFFSET  -1.818440   0.000000   0.000000
                                        }
                                    }
                                }
                            }
                        }
                    }
                }
            }
        }
    }
    JOINT LeftHip
    {
        OFFSET   9.783010   0.000000   0.000000
        CHANNELS 3 Zrotation Xrotation Yrotation
        JOINT LeftKnee
        {
            OFFSET   0.000070 -41.789100   0.000028
            CHANNELS 3 Zrotation Xrotation Yrotation
            JOINT LeftAnkle
            {
                OFFSET   0.000087 -41.133200  -0.000100
                CHANNELS 3 Zrotation Xrotation Yrotation
                JOINT LeftToe
                {
                    OFFSET   0.000000  -6.358960  14.674500
                    CHANNELS 3 Zrotation Xrotation Yrotation
                    End Site
                    {
                        OFFSET   0.000000   0.000000   3.913200
                    }
                }
            }
        }
    }
    JOINT RightHip
    {
        OFFSET  -9.783020   0.000000   0.000000
        CHANNELS 3 Zrotation Xrotation Yrotation
        JOINT RightKnee
        {
            OFFSET   0.000044 -41.789100  -0.000870
            CHANNELS 3 Zrotation Xrotation Yrotation
            JOINT RightAnkle
            {
                OFFSET  -0.000090 -41.133200  -0.000245
                CHANNELS 3 Zrotation Xrotation Yrotation
                JOINT RightToe
                {
                    OFFSET   0.000000  -6.358960  14.674500
                    CHANNELS 3 Zrotation Xrotation Yrotation
                    End Site
                    {
                        OFFSET   0.000000   0.000000   3.913200
                    }
                }
            }
        }
    }
}
MOTION
Frames: 5
Frame Time:   0.016667
  5.794970  88.519500  -3.321950  -3.408650 -27.859300 -11.479200  -1.311520  14.735300   1.006770  -3.061950  29.439800   2.507680  -0.654376  -2.625150  -0.023814  -1.082530  -5.318140   3.018240  -8.107840  -6.900880  10.566500 -64.087200  17.433000 -65.939300  -1.816080 -15.541200 -97.417900   4.253560   1.286350 -31.158000  37.288300  19.164600 -53.205200 -24.695400  -0.001636   0.002136  -7.347750   0.003357   0.000720  -1.948010  -0.084896   2.461650  -1.595370   0.002730  -0.002849  -1.116760   0.002276  -0.000426  -6.500500  -0.280694   2.460190  -6.506600  -0.002072  -0.000404  -4.333410  -0.001575  -0.001295  -0.483012  -0.021937   2.475830  -0.583540  -0.002615   0.000783  -0.389380  -0.002496  -0.000606  -4.686290  -0.220680   2.683670  -7.037250  -0.004599  -0.000800  -4.686830  -0.002942   0.000556   4.049440   1.265180  13.122600  68.527100   5.921380  72.203300  -8.074140  -0.014271  89.871700 -12.661700  -3.623430  34.487200 -40.098500  24.875400  63.459500  -1.295070   0.001490   0.000128  -5.647540  -0.000235  -0.001022  11.335900   1.613310   7.990230   9.366920   0.003762  -0.003141   6.556870   0.004730  -0.002845  12.602300   1.390930   6.194530  12.678100   0.001566  -0.005292   8.443660   0.004357  -0.004765  10.699400   0.726381   3.839430  10.724300   0.003888   0.000950   7.142330   0.001651   0.000249  11.960700   0.810759   3.822530  17.982000   0.002986   0.001576  11.976000   0.001950  -0.003876  -4.907120  26.385900   1.421750  -1.283040   4.979060  15.573700   1.882580  -5.214540   3.953220   0.000000   0.000000   0.000000  -5.747450  15.813800  -0.997814  -5.904410  21.597500  -6.110850   5.668920  -8.231200   1.986360   0.000000   0.000000  -0.000000
  5.824620  88.518100  -3.354920  -3.404630 -27.865500 -11.469500  -1.351530  14.731500   1.017250  -3.149230  29.430200   2.541230  -0.600945  -2.626930  -0.023935  -0.992993  -5.324220   2.180010  -8.083140  -6.932670  10.567600 -63.910900  17.361400 -66.161100  -1.849800 -15.600100 -97.281100   4.223560   1.498860 -31.134400  37.300000  18.612700 -52.900100 -24.356900  -0.001634   0.002236  -7.178500   0.003646   0.000756  -1.636190  -0.066346   2.319550  -1.339870   0.002923  -0.003087  -0.937905   0.002436  -0.000588  -6.187550  -0.250238   2.306790  -6.192670  -0.002172  -0.000404  -4.124340  -0.001645  -0.001414  -0.157859  -0.006297   2.320560  -0.229168  -0.002738   0.000813  -0.152595  -0.002576  -0.000591  -4.389220  -0.200632   2.609890  -6.590790  -0.004716  -0.000744  -4.389490  -0.003023   0.000631   4.130270   1.139320  13.138200  68.512700   5.788440  72.018000  -7.642000 -20.099700  92.117300 -12.647100  -3.662840  34.486900 -40.032700  24.899100  63.557800  -1.363250   0.001419   0.000153  -5.681640  -0.000288  -0.000985  11.365900   1.633050   8.070080   9.393560   0.003835  -0.003084   6.575510   0.004730  -0.002847  12.614800   1.413420   6.290120  12.692300   0.001676  -0.005258   8.453110   0.004361  -0.004772  10.725300   0.744615   3.924610  10.750900   0.003845   0.000894   7.160110   0.001785   0.000132  11.980000   0.830470   3.907370  18.012600   0.003228   0.001503  11.996400   0.002090  -0.003862  -4.926740  26.355700   1.411810  -1.280960   4.979700  15.546200   1.894840  -5.192430   3.988180   0.000000   0.000000   0.000000  -5.772730  15.762000  -0.953367  -5.880420  21.646300  -6.150060   5.664650  -8.234600   1.978310  -0.000000   0.000000   0.000000
  5.856020  88.517300  -3.389730  -3.392870 -27.854800 -11.473000  -1.392030  14.719100   1.022210  -3.235510  29.404000   2.562810  -0.555195  -2.613740  -0.024048  -0.917492  -5.298390   1.325310  -8.070410  -6.961770  10.566900 -63.720400  17.318500 -66.372500  -1.903750 -15.686200 -97.161800   4.225870   1.604020 -31.142000  37.280600  18.375700 -52.728600 -24.287000  -0.001639   0.002327  -7.143530   0.003932   0.000791  -1.725650  -0.071939   2.357260  -1.413060   0.003115  -0.003326  -0.989126   0.002592  -0.000748  -6.269120  -0.259212   2.344080  -6.274320  -0.002271  -0.000405  -4.178730  -0.001711  -0.001533  -0.436835  -0.019139   2.357450  -0.054631  -0.002860   0.000840  -0.029355  -0.002650  -0.000573  -4.414260  -0.205569   2.643010  -6.628560  -0.004832  -0.000687  -4.414640  -0.003103   0.000706   4.237010   1.003480  13.190200  68.468500   5.633600  71.824200  -7.676910 -20.105600  91.995400 -12.685800  -3.707580  34.454900 -40.014100  24.821600  63.482800  -1.212780   0.001380   0.000076  -5.606400  -0.000347  -0.000934  11.397100   1.607590   7.927820   9.415980   0.003908  -0.003027   6.591210   0.004730  -0.002849  12.638600   1.397100   6.207840  12.714000   0.001791  -0.005226   8.467560   0.004361  -0.004779  10.747700   0.745525   3.921510  10.773400   0.003802   0.000834   7.175110   0.001923   0.000017  12.002600   0.831353   3.904240  18.046700   0.003470   0.001425  12.019100   0.002234  -0.003848  -4.953830  26.300200   1.399620  -1.282610   4.993660  15.524600   1.906180  -5.172260   4.035090   0.000000   0.000000   0.000000  -5.805300  15.695700  -0.954398  -5.876780  21.688100  -6.149630   5.669100  -8.243030   1.990640   0.000000   0.000000   0.000000
  5.885440  88.516900  -3.426690  -3.378410 -27.837400 -11.485100  -1.433030  14.704500   1.027790  -3.322920  29.373900   2.585760  -0.519289  -2.591580  -0.024162  -0.857830  -5.253050   0.448836  -8.063650  -6.998450  10.558200 -63.591100  17.262200 -66.549800  -1.994260 -15.767000 -97.051400   4.232590   1.633430 -31.155400  37.266500  18.302400 -52.633700 -24.277000  -0.001644   0.002411  -7.138530   0.004218   0.000826  -1.815090  -0.077531   2.413370  -1.486250   0.003307  -0.003563  -1.040350   0.002745  -0.000910  -6.350600  -0.268182   2.399790  -6.355960  -0.002369  -0.000406  -4.233120  -0.001775  -0.001651  -0.715784  -0.031980   2.412420   0.000000  -0.002979   0.000867   0.012473  -0.002719  -0.000553  -4.439220  -0.210502   2.696640  -6.666330  -0.004944  -0.000631  -4.439790  -0.003180   0.000782   4.325190   0.878349  13.228500  68.418300   5.477100  71.686400  -7.703370 -20.095700  91.826800 -12.748000  -3.736350  34.410400 -39.991400  24.751600  63.397800  -1.062300   0.001350   0.000000  -5.531160  -0.000407  -0.000899  11.416400   1.582110   7.785570   9.428580   0.003982  -0.002971   6.600030   0.004731  -0.002852  12.654900   1.380780   6.125570  12.728600   0.001912  -0.005196   8.477230   0.004360  -0.004787  10.767000   0.746434   3.918410  10.792600   0.003760   0.000769   7.187890   0.002066  -0.000097  12.022000   0.832236   3.901110  18.075600   0.003714   0.001343  12.038400   0.002382  -0.003835  -4.981220  26.238000   1.385760  -1.286070   5.013750  15.505500   1.914070  -5.152540   4.091620  -0.000000   0.000000   0.000000  -5.840600  15.625300  -0.963462  -5.879500  21.720700  -6.135510   5.677260  -8.253350   2.009660   0.000000   0.000000   0.000000
  5.909630  88.516400  -3.464950  -3.374450 -27.824500 -11.508200  -1.475110  14.693200   1.044350  -3.416100  29.349400   2.631950  -0.499020  -2.573610  -0.024289  -0.824213  -5.217040  -0.490059  -8.066530  -7.051940  10.473100 -63.525200  17.159300 -66.666400  -2.140740 -15.720900 -96.895400   4.308430   1.427120 -31.173900  37.264900  18.295400 -52.590000 -24.294400  -0.001627   0.002496  -7.147210   0.004504   0.000859  -1.689800  -0.073594   2.449270  -1.383650   0.003499  -0.003800  -0.968534   0.002894  -0.001072  -6.232860  -0.266674   2.436180  -6.238250  -0.002464  -0.000406  -4.154710  -0.001837  -0.001768  -0.479233  -0.023168   2.447840  -0.012112  -0.003096   0.000895  -0.001828  -0.002784  -0.000533  -4.351990  -0.208976   2.738790  -6.535520  -0.005055  -0.000573  -4.352670  -0.003256   0.000857   4.359950   0.790216  13.197000  68.419000   5.357200  71.641900  -7.634420 -20.030700  91.762000 -12.774400  -3.736870  34.383600 -40.067400  24.841500  63.387600  -1.150240   0.001309  -0.000000  -5.575140  -0.000465  -0.000896  11.413400   1.583160   7.791160   9.425980   0.004057  -0.002917   6.598210   0.004734  -0.002856  12.644300   1.382440   6.134250  12.717700   0.002040  -0.005163   8.469970   0.004361  -0.004794  10.770600   0.766623   4.020310  10.798300   0.003721   0.000701   7.191640   0.002209  -0.000211  12.024200   0.854325   4.002630  18.082200   0.003958   0.001256  12.042800   0.002532  -0.003823  -5.002050  26.188300   1.371790  -1.287130   5.025550  15.484800   1.915960  -5.132600   4.154540   0.000000   0.000000   0.000000  -5.865350  15.567300  -1.007130  -5.898310  21.736900  -6.083420   5.686580  -8.262420   2.024130   0.000000   0.000000   0.000000
